<svg xmlns="http://www.w3.org/2000/svg" viewBox="0 0 512 512">
  <defs>
    <linearGradient id="bg" x1="0%" y1="0%" x2="100%" y2="100%">
      <stop offset="0%" style="stop-color:#3b82f6"/>
      <stop offset="100%" style="stop-color:#8b5cf6"/>
    </linearGradient>
  </defs>
  <rect width="512" height="512" rx="100" fill="url(#bg)"/>
  <g transform="translate(256,256)">
    <!-- Sun -->
    <circle cx="0" cy="-40" r="60" fill="#fbbf24"/>
    <g stroke="#fbbf24" stroke-width="8" stroke-linecap="round">
      <line x1="0" y1="-120" x2="0" y2="-140"/>
      <line x1="0" y1="40" x2="0" y2="60"/>
      <line x1="-120" y1="-40" x2="-140" y2="-40"/>
      <line x1="120" y1="-40" x2="140" y2="-40"/>
      <line x1="-85" y1="-105" x2="-100" y2="-120"/>
      <line x1="85" y1="-105" x2="100" y2="-120"/>
      <line x1="-85" y1="25" x2="-100" y2="40"/>
      <line x1="85" y1="25" x2="100" y2="40"/>
    </g>
    <!-- Cloud -->
    <g fill="white">
      <ellipse cx="20" cy="20" rx="80" ry="40"/>
      <ellipse cx="-30" cy="10" rx="60" ry="35"/>
      <ellipse cx="-60" cy="25" rx="40" ry="25"/>
      <ellipse cx="-20" cy="35" rx="70" ry="20"/>
    </g>
    <!-- Raindrop -->
    <g fill="#60a5fa">
      <path d="M50 60 Q55 70 50 80 Q45 70 50 60Z"/>
      <path d="M70 70 Q75 80 70 90 Q65 80 70 70Z"/>
      <path d="M90 60 Q95 70 90 80 Q85 70 90 60Z"/>
    </g>
  </g>
</svg>
